<?xml version="1.0" standalone="no"?>
<!DOCTYPE svg PUBLIC "-//W3C//DTD SVG 20010904//EN"
 "http://www.w3.org/TR/2001/REC-SVG-20010904/DTD/svg10.dtd">
<svg version="1.0" xmlns="http://www.w3.org/2000/svg"
 width="700.000000pt" height="700.000000pt" viewBox="0 0 700.000000 700.000000"
 preserveAspectRatio="xMidYMid meet">
<metadata>
Created by potrace 1.14, written by Peter Selinger 2001-2017
</metadata>
<g transform="translate(0.000000,700.000000) scale(0.100000,-0.100000)"
fill="#000000" stroke="none">
<path d="M3230 6704 c-14 -2 -79 -11 -145 -20 -66 -8 -160 -23 -210 -34 -49
-10 -121 -24 -160 -30 -38 -7 -121 -30 -182 -51 -62 -22 -120 -39 -129 -39
-20 0 -353 -138 -364 -151 -3 -3 -41 -22 -85 -43 -44 -21 -103 -53 -132 -72
-28 -19 -57 -34 -63 -34 -7 0 -39 -21 -72 -46 -33 -25 -70 -49 -82 -54 -13 -4
-44 -27 -71 -50 -27 -23 -59 -46 -72 -51 -12 -5 -23 -12 -23 -17 0 -5 -32 -32
-70 -61 -102 -76 -332 -304 -438 -434 -146 -179 -182 -226 -182 -236 0 -5 -11
-23 -26 -40 -38 -45 -126 -192 -190 -316 -31 -60 -60 -114 -64 -120 -4 -5 -11
-21 -15 -35 -4 -14 -21 -54 -37 -90 -34 -72 -53 -122 -73 -190 -7 -25 -23 -72
-35 -105 -33 -90 -51 -154 -60 -210 -5 -27 -20 -104 -34 -170 -42 -194 -60
-378 -61 -605 0 -232 14 -380 57 -590 16 -80 33 -167 38 -195 4 -27 27 -104
50 -170 23 -66 45 -136 49 -155 14 -66 224 -503 261 -545 10 -11 26 -36 37
-56 24 -49 136 -209 142 -204 2 3 -1 11 -8 19 -6 7 -25 40 -42 72 -16 33 -43
84 -59 114 -17 30 -30 58 -30 62 0 4 -22 53 -50 109 -27 56 -50 111 -50 123 0
12 -6 30 -13 41 -17 25 -78 208 -111 335 -74 285 -101 504 -101 835 0 296 26
535 81 740 14 55 33 128 40 163 8 34 30 104 50 155 20 50 42 110 48 132 28 91
173 382 249 499 18 27 43 68 57 91 14 24 41 64 60 89 135 179 172 225 201 257
19 19 70 74 113 122 44 48 83 87 89 87 5 0 29 23 54 50 25 28 51 50 59 50 8 0
14 4 14 10 0 10 189 161 245 195 18 11 50 33 71 48 36 26 171 109 219 133 11
6 40 21 65 34 105 55 162 82 276 129 66 28 126 51 132 51 6 0 65 18 129 39
127 42 148 47 353 85 249 46 306 51 575 51 266 0 450 -19 605 -60 30 -8 69
-15 85 -15 17 0 80 -16 140 -35 61 -18 135 -42 165 -51 83 -25 231 -83 254
-100 11 -8 29 -14 38 -14 10 0 58 -22 106 -49 48 -27 98 -52 111 -56 14 -4 29
-12 35 -17 19 -16 112 -74 130 -81 9 -4 46 -27 80 -52 35 -25 69 -45 75 -45 6
0 11 -4 11 -8 0 -8 54 -50 126 -99 18 -12 48 -38 67 -58 19 -19 38 -35 43 -35
5 0 29 -20 54 -45 142 -141 181 -181 240 -246 36 -39 67 -76 69 -83 2 -6 17
-24 33 -40 16 -16 37 -41 46 -55 9 -14 37 -53 62 -86 25 -33 53 -74 62 -92 10
-18 34 -53 53 -79 19 -25 35 -50 35 -55 0 -5 21 -44 46 -85 26 -42 49 -86 53
-98 4 -11 28 -64 53 -116 55 -111 148 -348 148 -376 0 -10 8 -41 19 -69 26
-71 78 -295 91 -395 6 -47 16 -116 23 -155 15 -94 15 -658 -1 -745 -6 -36 -18
-117 -26 -180 -15 -110 -21 -139 -65 -295 -47 -168 -69 -238 -87 -280 -7 -16
-22 -52 -33 -79 -12 -27 -21 -55 -21 -64 0 -8 -18 -50 -40 -93 -22 -44 -37
-79 -32 -79 10 0 26 27 69 114 20 39 43 82 53 96 9 14 27 50 40 80 12 30 41
93 63 140 22 47 43 101 48 120 4 19 28 94 53 165 25 72 46 139 46 150 0 11 13
79 29 150 91 404 94 829 9 1250 -16 83 -34 171 -38 196 -5 26 -27 100 -50 165
-23 66 -45 136 -50 156 -11 42 -78 198 -91 212 -5 6 -9 19 -9 29 0 11 -22 59
-50 108 -27 49 -50 92 -50 97 0 5 -20 40 -43 78 -24 38 -56 90 -70 116 -15 26
-34 53 -42 61 -8 8 -27 35 -42 60 -43 69 -174 238 -189 244 -8 3 -14 11 -14
18 0 7 -20 31 -45 54 -25 23 -45 45 -45 49 0 6 -81 86 -220 216 -47 44 -185
154 -237 190 -24 16 -43 32 -43 36 0 4 -17 15 -37 26 -20 10 -59 35 -87 56
-27 20 -73 49 -103 64 -30 15 -60 32 -66 39 -14 13 -284 146 -342 168 -22 9
-78 32 -125 51 -46 20 -89 36 -96 36 -6 0 -65 18 -130 39 -66 22 -148 45 -184
51 -36 7 -94 18 -130 26 -204 44 -334 56 -610 59 -151 2 -286 1 -300 -1z"/>
<path d="M3130 5862 c33 -32 60 -64 60 -70 0 -19 -26 -14 -66 13 -20 14 -43
25 -51 25 -7 0 -41 9 -74 20 -114 39 -293 36 -369 -6 l-25 -13 31 -1 c17 0 46
-5 65 -12 55 -19 177 -102 250 -172 72 -68 88 -105 47 -107 -22 -1 -22 -1 2
-8 40 -13 131 -61 153 -82 12 -10 27 -19 35 -19 8 0 36 -19 62 -42 26 -24 58
-52 71 -64 41 -35 119 -121 119 -130 0 -5 14 -27 30 -48 32 -42 39 -76 17 -76
-8 0 -22 10 -33 21 -10 12 -38 30 -62 40 -57 25 -65 24 -22 -2 51 -30 98 -84
109 -126 17 -61 -10 -74 -44 -21 -11 17 -29 36 -40 42 -11 6 -33 20 -50 32
-41 29 -113 63 -155 74 -19 5 -69 18 -110 29 -41 11 -104 21 -140 20 -65 0
-65 0 -42 -18 24 -21 29 -41 10 -41 -7 0 -38 7 -68 15 -70 19 -170 19 -257 1
-77 -17 -107 -29 -176 -70 l-49 -29 31 -13 c43 -18 41 -44 -3 -44 -46 0 -161
-60 -221 -114 -85 -77 -107 -100 -96 -104 5 -2 51 11 103 28 64 22 134 36 223
46 164 17 247 17 410 -1 134 -15 186 -26 290 -64 33 -13 78 -28 100 -35 167
-53 218 -98 125 -110 -50 -7 -64 -19 -35 -30 29 -11 16 -35 -22 -41 -21 -3
-60 -10 -88 -15 -27 -5 -68 -12 -90 -15 -36 -6 -67 -20 -197 -87 -20 -11 -44
-30 -53 -44 -18 -28 -17 -29 21 -9 37 19 64 19 64 1 0 -17 -46 -56 -66 -56 -7
0 -14 -3 -16 -8 -1 -4 -26 -27 -54 -50 -28 -23 -66 -64 -85 -90 -18 -26 -37
-50 -41 -53 -9 -6 -30 -71 -25 -75 2 -2 23 14 47 36 70 61 81 50 26 -28 -18
-27 -40 -62 -49 -78 -19 -37 -31 -174 -18 -194 6 -8 11 -10 11 -4 0 20 96 132
150 176 79 64 79 65 89 50 6 -10 14 -5 30 21 11 19 21 38 21 43 0 14 138 154
152 154 7 0 33 14 57 30 24 17 53 30 64 30 20 0 20 -15 0 -67 -4 -10 21 7 55
39 33 31 87 68 118 82 58 27 64 26 77 -9 5 -12 68 22 80 42 8 12 57 19 57 7 0
-3 -12 -24 -28 -47 -24 -37 -55 -107 -47 -107 5 0 81 33 153 66 40 19 79 34
87 34 7 0 17 5 20 10 12 20 35 9 82 -41 66 -71 64 -69 97 -114 16 -22 34 -45
41 -50 7 -6 22 -30 34 -54 13 -24 31 -53 41 -63 22 -24 132 -247 150 -303 7
-22 18 -58 25 -80 38 -118 46 -150 64 -255 29 -156 29 -408 1 -573 -11 -65
-20 -121 -20 -123 0 -37 116 171 147 265 26 77 32 137 18 201 l-8 35 23 -20
c13 -11 31 -33 40 -48 l17 -28 31 96 c69 210 66 383 -8 475 -11 14 -23 40 -26
58 l-7 33 47 -26 46 -26 0 24 c0 89 -104 359 -157 409 -13 12 -23 26 -23 32 0
14 -48 54 -87 73 -49 23 -41 39 22 47 47 5 63 2 117 -23 35 -16 74 -32 88 -36
14 -4 30 -11 35 -15 11 -9 74 -44 148 -83 25 -14 66 -41 90 -61 24 -20 48 -36
54 -36 27 0 333 -301 333 -328 0 -5 15 -29 34 -54 19 -25 49 -76 67 -114 30
-62 34 -67 40 -44 18 63 5 187 -29 267 -11 27 -30 50 -54 65 -21 13 -38 26
-38 30 0 9 60 -1 75 -12 6 -4 18 -10 29 -14 16 -6 18 -3 12 25 -3 17 -12 45
-20 62 -8 18 -17 43 -20 57 -13 59 -114 164 -224 232 -25 16 -30 23 -20 29 7
5 21 6 31 3 9 -3 17 -3 17 0 0 21 -218 178 -264 192 -12 3 -50 18 -86 32 -36
14 -108 33 -160 43 -83 14 -91 18 -63 24 45 10 33 22 -32 30 -34 5 -68 17 -88
31 -18 13 -42 29 -55 36 -12 6 -21 16 -19 22 2 6 39 22 83 35 66 21 101 25
209 25 72 1 145 -2 162 -6 31 -7 32 -6 21 12 -7 10 -22 21 -35 25 -16 4 -23
13 -23 29 0 22 4 23 103 29 163 10 407 56 407 77 0 4 -9 10 -20 13 -28 7 -25
35 5 43 14 3 73 4 133 2 81 -4 119 -10 156 -27 27 -12 51 -20 53 -18 2 2 -30
33 -72 69 -151 131 -343 203 -572 216 -51 2 -93 8 -93 13 0 4 21 26 47 48 25
23 44 43 41 46 -2 3 -31 8 -64 11 -107 11 -306 -31 -422 -89 -99 -50 -139 -73
-157 -91 -29 -29 -45 -13 -45 45 0 29 -22 40 -36 18 -3 -6 -30 -22 -58 -34
-28 -13 -79 -46 -114 -74 -34 -28 -68 -51 -76 -51 -9 0 -16 19 -20 58 -10 84
-20 95 -55 55 -36 -43 -51 -42 -51 5 -1 20 -7 73 -16 117 -8 44 -18 100 -23
125 -8 47 -42 123 -89 200 -26 43 -138 160 -153 160 -5 0 3 -25 17 -55 25 -59
32 -115 12 -115 -12 0 -88 78 -88 91 0 5 -38 41 -83 81 -85 74 -183 131 -292
168 -96 33 -102 27 -35 -38z"/>
<path d="M3711 4269 c-13 -5 -38 -16 -55 -23 -17 -8 -44 -17 -61 -21 -16 -3
-47 -17 -69 -30 l-38 -23 43 -28 c24 -15 57 -36 72 -46 16 -11 29 -18 30 -16
25 48 56 102 79 137 33 50 33 62 -1 50z"/>
<path d="M3451 4127 c-6 -6 -11 -18 -11 -27 0 -9 -16 -46 -36 -83 -20 -38 -34
-70 -32 -73 3 -2 52 4 111 14 103 17 106 18 121 49 15 32 15 32 -22 60 -20 15
-45 35 -55 44 -24 21 -63 29 -76 16z"/>
<path d="M2273 3944 c-49 -30 -133 -137 -133 -171 0 -13 -4 -23 -10 -23 -5 0
-10 18 -10 40 0 22 -5 40 -11 40 -5 0 -22 -26 -36 -57 -22 -50 -26 -72 -26
-156 0 -83 -2 -97 -16 -95 -12 2 -15 -4 -13 -29 4 -44 -14 -43 -79 2 -59 40
-69 43 -69 15 0 -24 -18 -26 -48 -4 -49 34 -272 62 -272 34 0 -5 7 -10 15 -10
8 0 15 -8 15 -18 0 -14 -13 -22 -52 -31 -88 -20 -158 -61 -195 -115 -24 -33
-29 -44 -15 -37 10 5 42 13 70 17 43 5 52 4 52 -9 0 -20 28 -27 143 -34 53 -3
97 -9 97 -12 0 -4 -5 -12 -12 -19 -18 -18 -4 -24 26 -12 15 5 48 10 74 9 103
-2 129 -30 63 -67 -21 -12 -41 -29 -44 -36 -3 -8 -23 -18 -44 -22 -50 -9 -165
-120 -157 -151 4 -14 -2 -26 -18 -39 -38 -30 -78 -184 -48 -184 6 0 10 -30 10
-69 0 -39 4 -72 8 -75 5 -3 16 19 25 48 9 30 26 70 39 89 13 20 34 54 48 77
33 54 135 154 206 202 69 47 104 52 57 8 -54 -51 -98 -210 -58 -210 11 0 15
-13 15 -54 0 -83 50 -196 87 -196 8 0 17 -8 20 -17 11 -29 84 -133 94 -133 4
0 0 24 -10 53 -30 82 -44 184 -38 277 8 121 19 167 57 238 29 54 37 62 54 57
32 -11 140 -24 146 -18 3 2 -3 10 -13 17 -9 7 -17 21 -17 31 0 15 6 16 38 10
20 -4 42 -10 47 -15 6 -4 20 -11 33 -14 18 -6 22 -3 22 13 0 29 26 27 94 -7
l56 -29 0 24 c0 29 21 30 75 2 76 -38 94 -50 113 -74 11 -14 29 -25 41 -25 30
0 122 -49 148 -80 23 -25 23 -25 23 -3 0 30 -50 109 -100 157 -43 42 -46 59
-6 32 36 -23 40 -20 14 14 -24 34 -132 101 -193 121 -36 12 -37 14 -15 17 40
6 43 18 8 33 -36 15 -142 19 -200 6 -34 -7 -38 -6 -38 13 0 15 -6 20 -25 20
-30 0 -33 21 -5 35 10 6 59 30 107 55 l88 45 152 0 151 0 -36 32 c-20 18 -52
36 -69 39 -23 4 -33 12 -33 24 0 38 -136 70 -195 46 -47 -20 -55 -20 -55 -1 0
8 -4 15 -10 15 -20 0 -140 -52 -140 -61 0 -5 -6 -9 -13 -9 -15 0 -50 -37 -61
-65 -8 -19 -9 -18 -18 5 -5 14 -7 33 -4 42 2 10 0 18 -5 18 -18 0 5 67 40 119
20 30 57 72 83 94 25 22 44 46 41 53 -3 7 5 27 16 43 12 16 21 33 21 38 0 14
40 47 75 62 l30 13 -23 11 c-34 16 -164 -17 -206 -52 -25 -21 -29 -7 -6 19 39
45 24 51 -37 14z"/>
<path d="M3405 3915 c-27 -8 -53 -14 -57 -15 -5 0 -8 -7 -8 -15 0 -8 -10 -33
-22 -56 l-21 -42 43 -36 c24 -20 60 -52 81 -73 l37 -36 36 96 c21 54 41 111
46 127 4 17 11 38 15 48 6 15 1 17 -46 16 -30 0 -76 -7 -104 -14z"/>
<path d="M3265 3713 c-10 -21 -23 -58 -30 -83 -7 -25 -16 -53 -20 -64 -7 -15
-4 -17 11 -13 10 3 60 16 109 27 106 25 119 34 85 57 -14 9 -39 31 -57 49 -18
17 -43 38 -57 47 -24 16 -24 15 -41 -20z"/>
<path d="M3350 3545 c-30 -8 -71 -14 -90 -15 -43 -1 -67 -18 -81 -59 -10 -30
-9 -34 32 -79 24 -26 50 -51 58 -56 8 -5 34 -29 57 -54 l43 -45 6 39 c7 39 49
220 61 262 8 26 -4 27 -86 7z"/>
<path d="M3132 3318 c-11 -46 -34 -135 -50 -198 -16 -63 -32 -131 -36 -151
l-6 -35 37 3 c21 2 88 13 150 25 l111 21 6 51 c3 28 8 76 12 106 l6 56 -69 69
c-37 37 -84 83 -104 102 l-36 33 -21 -82z"/>
<path d="M2208 2996 c15 -17 28 -33 29 -35 1 -2 16 7 33 19 17 12 28 25 25 28
-3 3 -30 9 -60 12 l-55 6 28 -30z"/>
<path d="M2302 2957 c-50 -35 -41 -47 33 -47 36 0 65 1 65 3 0 1 -15 16 -33
34 l-33 32 -32 -22z"/>
<path d="M3180 2924 c-103 -21 -140 -34 -140 -47 0 -7 23 -31 50 -55 28 -24
50 -47 50 -52 0 -5 29 -37 64 -72 34 -35 82 -85 106 -113 l43 -50 -6 49 c-4
27 -7 118 -7 202 l0 154 -47 -1 c-27 -1 -77 -7 -113 -15z"/>
<path d="M2310 2866 c0 -3 6 -11 13 -18 6 -7 22 -35 35 -62 l23 -49 26 24 c33
32 46 65 33 90 -9 15 -22 19 -70 19 -33 0 -60 -2 -60 -4z"/>
<path d="M3026 2808 c-21 -91 -51 -485 -41 -518 6 -18 7 -18 38 -1 18 10 57
26 87 36 137 43 222 76 236 89 34 34 15 74 -86 178 -41 42 -110 113 -152 157
-70 74 -78 80 -82 59z"/>
<path d="M2458 2775 c-24 -32 -23 -35 17 -35 39 0 42 6 17 37 l-17 22 -17 -24z"/>
<path d="M2420 2693 c0 -4 12 -39 27 -76 l27 -69 23 28 c36 45 57 90 50 108
-5 12 -20 16 -67 16 -33 0 -60 -3 -60 -7z"/>
<path d="M2554 2603 c-10 -21 -29 -50 -42 -64 l-23 -26 18 -49 19 -49 62 -3
c86 -4 95 3 71 52 -10 22 -19 45 -19 51 0 11 -59 125 -64 125 -2 0 -11 -17
-22 -37z"/>
<path d="M2558 2373 c-21 -5 -23 -46 -7 -124 10 -45 13 -49 22 -33 6 10 14 21
17 24 4 3 24 35 44 73 l36 67 -47 -1 c-27 -1 -56 -3 -65 -6z"/>
<path d="M3339 2364 c-15 -7 -48 -18 -74 -24 -59 -13 -205 -69 -223 -85 -11
-10 -1 -21 54 -60 37 -26 75 -50 84 -54 9 -3 50 -28 91 -55 147 -98 189 -125
189 -123 0 4 -39 183 -64 296 -14 62 -27 115 -28 116 -2 2 -15 -3 -29 -11z"/>
<path d="M2693 2342 c-6 -4 -25 -34 -43 -67 -18 -33 -44 -79 -57 -103 -14 -24
-24 -44 -22 -46 12 -10 194 -45 200 -39 11 11 -46 249 -61 258 -3 2 -11 1 -17
-3z"/>
<path d="M2990 2163 c0 -32 7 -103 15 -158 8 -55 15 -112 15 -127 0 -32 -6
-34 -126 -43 l-81 -6 -7 83 c-9 98 -15 128 -27 128 -20 0 -218 -213 -224 -240
-9 -40 -18 -45 -118 -64 -48 -9 -96 -21 -105 -26 -9 -5 -73 -28 -142 -50 -69
-23 -161 -58 -205 -79 -44 -22 -95 -42 -112 -46 -18 -4 -33 -10 -33 -15 0 -5
-15 -13 -33 -19 -19 -7 -49 -23 -67 -36 -19 -14 -40 -25 -48 -25 -7 0 -35 -14
-60 -32 -66 -44 -93 -61 -125 -77 -15 -8 -44 -30 -65 -49 -20 -18 -49 -38 -64
-44 -15 -5 -33 -20 -42 -32 -12 -19 8 -12 107 38 67 33 140 69 162 78 193 80
275 112 305 119 19 4 87 25 151 47 63 22 144 46 180 52 35 6 87 18 114 25 153
44 225 57 518 95 341 45 478 53 892 54 409 0 484 -4 1020 -54 308 -29 683 -74
780 -94 l30 -6 -30 14 c-37 18 -160 57 -275 86 -47 12 -114 30 -150 40 -84 24
-105 28 -520 106 -69 13 -177 28 -240 34 -63 6 -180 17 -260 25 -80 8 -253 18
-385 21 -206 6 -243 9 -260 24 -11 9 -44 31 -73 49 -30 18 -63 41 -75 51 -11
11 -35 24 -54 31 -18 6 -33 14 -33 18 0 4 -22 20 -50 36 -27 16 -50 32 -50 35
0 3 -15 11 -32 18 -18 6 -49 25 -68 42 -19 16 -38 30 -42 30 -5 0 -8 -26 -8
-57z"/>
<path d="M2568 1981 c-2 -55 -2 -99 -1 -98 1 1 40 39 86 84 l83 82 -69 15
c-38 9 -75 16 -83 16 -9 0 -13 -26 -16 -99z"/>
<path d="M4485 1278 c-71 -4 -174 -15 -227 -23 -53 -8 -120 -15 -147 -15 -47
0 -140 -16 -346 -60 -49 -10 -119 -24 -155 -30 -36 -5 -103 -17 -150 -25 -101
-16 -173 -30 -295 -56 -49 -10 -151 -25 -225 -34 -74 -9 -202 -25 -285 -38
-138 -20 -186 -22 -600 -22 -319 0 -470 4 -520 13 -66 12 -219 31 -420 52 -94
11 -251 38 -395 70 -47 10 -110 21 -140 25 -60 7 -121 18 -218 42 -35 9 -65
13 -69 10 -3 -4 21 -18 53 -32 33 -14 99 -46 148 -71 48 -24 95 -44 103 -44 9
0 48 -15 87 -34 100 -48 145 -66 170 -66 11 -1 39 -9 61 -20 22 -11 46 -19 53
-20 7 0 29 -8 50 -18 20 -10 73 -27 117 -36 44 -10 103 -26 130 -36 68 -24
172 -48 280 -66 50 -8 113 -18 140 -23 320 -54 461 -66 740 -66 294 0 527 21
830 75 28 5 79 12 115 15 60 6 103 15 305 61 39 8 111 22 160 30 157 24 285
49 445 85 47 10 113 19 145 19 33 0 79 5 103 10 63 15 436 40 597 40 192 0
430 -19 745 -59 89 -12 209 -35 282 -55 29 -7 98 -21 153 -31 100 -17 163 -32
306 -75 88 -26 116 -24 62 5 -21 11 -47 28 -57 38 -11 9 -25 17 -32 17 -14 0
-183 86 -198 101 -6 5 -19 9 -29 9 -10 0 -31 6 -45 13 -107 54 -134 66 -187
82 -33 10 -76 26 -96 36 -20 11 -48 19 -63 19 -14 0 -26 4 -26 8 0 10 -53 28
-120 42 -76 15 -156 36 -171 45 -7 5 -34 12 -59 16 -25 4 -72 14 -105 23 -33
8 -79 15 -102 16 -23 0 -75 6 -115 14 -160 32 -506 43 -783 24z"/>
<path d="M4670 728 c-47 -5 -123 -16 -170 -25 -47 -8 -107 -19 -135 -23 -27
-5 -70 -14 -95 -20 -25 -7 -74 -15 -110 -20 -69 -8 -137 -23 -210 -45 -63 -19
-178 -43 -288 -61 -52 -8 -102 -18 -111 -23 -9 -5 -53 -14 -97 -21 -45 -6 -96
-15 -114 -20 -18 -5 -89 -14 -159 -20 -69 -5 -175 -15 -236 -21 -200 -20 -947
2 -1192 35 -51 7 -93 9 -93 5 0 -4 15 -10 33 -14 50 -11 276 -75 338 -96 31
-10 73 -19 93 -19 21 0 65 -7 99 -14 174 -41 510 -76 727 -76 206 1 491 30
700 72 30 6 84 14 120 18 69 9 164 30 270 60 36 11 108 26 160 36 52 9 124 24
160 34 102 28 236 53 430 80 123 17 479 38 590 33 181 -6 419 -22 482 -32 35
-6 110 -15 168 -21 58 -6 119 -13 135 -17 44 -9 21 9 -28 23 -50 13 -218 71
-265 90 -18 8 -48 14 -67 14 -19 0 -63 9 -97 19 -75 23 -256 56 -390 70 -114
13 -526 12 -648 -1z"/>
</g>
</svg>
